# xmcd
#
# Track frame offsets:
#	150
#	12840
#	23702
#	32897
#	43390
#	55372
#	70065
#	81890
#	94840
#	104065
#	119835
#	133290
#	146435
#	161390
#	174725
#	185325
#
# Disc length: 2633 seconds
#
# Revision: 0
# Processed by: cddbd v1.5.1PL0 Copyright (c) Steve Scherf et al.
# Submitted via: dBpowerAMP V4.0
#
DISCID=e90a4710
DTITLE=Katri Helena - Parhaat CD 1 - Puhelinlangat laulaa
DYEAR=1993
DGENRE=Pop
TTITLE0=Poikien kuvat
TTITLE1=Puhelinlangat laulaa
TTITLE2=Budapestin sillat
TTITLE3=Minne tuuli kuljettaa
TTITLE4=Lui
TTITLE5=Maailman pihamaat
TTITLE6=Katupoikien laulu
TTITLE7=Paikka auringossa
TTITLE8=Kaunis maailmain
TTITLE9=Asfalttia ja sementti‰
TTITLE10=Ei kauniimpaa
TTITLE11=Samanlainen onni
TTITLE12=Kai laulaa saan
TTITLE13=Kuuden ik‰inen
TTITLE14=Taas kun tuulee
TTITLE15=Vain syd‰mell‰‰n voi kuulla kaiken
EXTD=
EXTT0=
EXTT1=
EXTT2=
EXTT3=
EXTT4=
EXTT5=
EXTT6=
EXTT7=
EXTT8=
EXTT9=
EXTT10=
EXTT11=
EXTT12=
EXTT13=
EXTT14=
EXTT15=
PLAYORDER=
